REM DIRINDEX 1\3,1\2\4,1\2\5,1\2\6
REM DIRNAME cjc137,folder01,folder02,folder03,folder04,folder05
TITLE ""
FILE "120.mp3" MP3
  TRACK 01 AUDIO
    TITLE "0:"
    INDEX 01 00:00:00
  TRACK 02 AUDIO
    TITLE "4:cjc137_4959"
    INDEX 01 00:00:03
  TRACK 03 AUDIO
    TITLE "0:"
    INDEX 01 00:01:26
  TRACK 04 AUDIO
    TITLE "6:cjc137_4960"
    INDEX 01 00:01:32
  TRACK 05 AUDIO
    TITLE "0:"
    INDEX 01 00:02:43
  TRACK 06 AUDIO
    TITLE "5:cjc137_4961"
    INDEX 01 00:02:51
  TRACK 07 AUDIO
    TITLE "0:"
    INDEX 01 00:03:74
  TRACK 08 AUDIO
    TITLE "4:cjc137_4962"
    INDEX 01 00:05:07
  TRACK 09 AUDIO
    TITLE "0:"
    INDEX 01 00:06:24
  TRACK 10 AUDIO
    TITLE "6:cjc137_4963"
    INDEX 01 00:06:31
  TRACK 11 AUDIO
    TITLE "0:"
    INDEX 01 00:07:66
  TRACK 12 AUDIO
    TITLE "5:cjc137_4964"
    INDEX 01 00:07:70
  TRACK 13 AUDIO
    TITLE "0:"
    INDEX 01 00:09:14
  TRACK 14 AUDIO
    TITLE "4:cjc137_4965"
    INDEX 01 00:10:21
  TRACK 15 AUDIO
    TITLE "0:"
    INDEX 01 00:11:39
  TRACK 16 AUDIO
    TITLE "6:cjc137_4966"
    INDEX 01 00:11:44
  TRACK 17 AUDIO
    TITLE "0:"
    INDEX 01 00:13:00
  TRACK 18 AUDIO
    TITLE "5:cjc137_4967"
    INDEX 01 00:13:04
  TRACK 19 AUDIO
    TITLE "0:"
    INDEX 01 00:14:21
  TRACK 20 AUDIO
    TITLE "4:cjc137_4968"
    INDEX 01 00:15:30
  TRACK 21 AUDIO
    TITLE "0:"
    INDEX 01 00:16:32
  TRACK 22 AUDIO
    TITLE "6:cjc137_4969"
    INDEX 01 00:16:40
  TRACK 23 AUDIO
    TITLE "0:"
    INDEX 01 00:17:47
  TRACK 24 AUDIO
    TITLE "5:cjc137_4970"
    INDEX 01 00:17:53
  TRACK 25 AUDIO
    TITLE "0:"
    INDEX 01 00:18:56
  TRACK 26 AUDIO
    TITLE "4:cjc137_4971"
    INDEX 01 00:19:63
  TRACK 27 AUDIO
    TITLE "0:"
    INDEX 01 00:20:63
  TRACK 28 AUDIO
    TITLE "6:cjc137_4972"
    INDEX 01 00:20:71
  TRACK 29 AUDIO
    TITLE "0:"
    INDEX 01 00:22:09
  TRACK 30 AUDIO
    TITLE "5:cjc137_4973"
    INDEX 01 00:22:15
  TRACK 31 AUDIO
    TITLE "0:"
    INDEX 01 00:23:14
  TRACK 32 AUDIO
    TITLE "4:cjc137_4974"
    INDEX 01 00:24:25
  TRACK 33 AUDIO
    TITLE "0:"
    INDEX 01 00:25:54
  TRACK 34 AUDIO
    TITLE "6:cjc137_4975"
    INDEX 01 00:25:62
  TRACK 35 AUDIO
    TITLE "0:"
    INDEX 01 00:27:06
  TRACK 36 AUDIO
    TITLE "5:cjc137_4976"
    INDEX 01 00:27:10
  TRACK 37 AUDIO
    TITLE "0:"
    INDEX 01 00:28:39
  TRACK 38 AUDIO
    TITLE "4:cjc137_4977"
    INDEX 01 00:29:46
  TRACK 39 AUDIO
    TITLE "0:"
    INDEX 01 00:31:00
  TRACK 40 AUDIO
    TITLE "6:cjc137_4978"
    INDEX 01 00:31:04
  TRACK 41 AUDIO
    TITLE "0:"
    INDEX 01 00:32:13
  TRACK 42 AUDIO
    TITLE "5:cjc137_4979"
    INDEX 01 00:32:17
  TRACK 43 AUDIO
    TITLE "0:"
    INDEX 01 00:33:46
  TRACK 44 AUDIO
    TITLE "4:cjc137_4980"
    INDEX 01 00:34:57
  TRACK 45 AUDIO
    TITLE "0:"
    INDEX 01 00:36:05
  TRACK 46 AUDIO
    TITLE "6:cjc137_4981"
    INDEX 01 00:36:23
  TRACK 47 AUDIO
    TITLE "0:"
    INDEX 01 00:37:10
  TRACK 48 AUDIO
    TITLE "5:cjc137_4982"
    INDEX 01 00:37:22
  TRACK 49 AUDIO
    TITLE "0:"
    INDEX 01 00:38:45
  TRACK 50 AUDIO
    TITLE "4:cjc137_4983"
    INDEX 01 00:39:66
  TRACK 51 AUDIO
    TITLE "0:"
    INDEX 01 00:41:12
  TRACK 52 AUDIO
    TITLE "6:cjc137_4984"
    INDEX 01 00:41:22
  TRACK 53 AUDIO
    TITLE "0:"
    INDEX 01 00:42:43
  TRACK 54 AUDIO
    TITLE "5:cjc137_4985"
    INDEX 01 00:42:49
  TRACK 55 AUDIO
    TITLE "0:"
    INDEX 01 00:43:68
  TRACK 56 AUDIO
    TITLE "4:cjc137_4986"
    INDEX 01 00:45:08
  TRACK 57 AUDIO
    TITLE "0:"
    INDEX 01 00:46:23
  TRACK 58 AUDIO
    TITLE "6:cjc137_4987"
    INDEX 01 00:46:31
  TRACK 59 AUDIO
    TITLE "0:"
    INDEX 01 00:47:28
  TRACK 60 AUDIO
    TITLE "5:cjc137_4988"
    INDEX 01 00:47:36
  TRACK 61 AUDIO
    TITLE "0:"
    INDEX 01 00:48:51
  TRACK 62 AUDIO
    TITLE "4:cjc137_4989"
    INDEX 01 00:49:61
  TRACK 63 AUDIO
    TITLE "0:"
    INDEX 01 00:51:05
  TRACK 64 AUDIO
    TITLE "6:cjc137_4990"
    INDEX 01 00:51:13
  TRACK 65 AUDIO
    TITLE "0:"
    INDEX 01 00:52:37
  TRACK 66 AUDIO
    TITLE "5:cjc137_4991"
    INDEX 01 00:52:41
  TRACK 67 AUDIO
    TITLE "0:"
    INDEX 01 00:53:64
  TRACK 68 AUDIO
    TITLE "4:cjc137_4992"
    INDEX 01 00:54:70
  TRACK 69 AUDIO
    TITLE "0:"
    INDEX 01 00:56:04
  TRACK 70 AUDIO
    TITLE "6:cjc137_4993"
    INDEX 01 00:56:14
  TRACK 71 AUDIO
    TITLE "0:"
    INDEX 01 00:57:39
  TRACK 72 AUDIO
    TITLE "5:cjc137_4994"
    INDEX 01 00:57:45
  TRACK 73 AUDIO
    TITLE "0:"
    INDEX 01 00:58:52
  TRACK 74 AUDIO
    TITLE "4:cjc137_4995"
    INDEX 01 00:59:65
  TRACK 75 AUDIO
    TITLE "0:"
    INDEX 01 01:01:15
  TRACK 76 AUDIO
    TITLE "6:cjc137_4996"
    INDEX 01 01:01:23
  TRACK 77 AUDIO
    TITLE "0:"
    INDEX 01 01:02:28
  TRACK 78 AUDIO
    TITLE "5:cjc137_4997"
    INDEX 01 01:02:32
  TRACK 79 AUDIO
    TITLE "0:"
    INDEX 01 01:03:57
  TRACK 80 AUDIO
    TITLE "4:cjc137_4998"
    INDEX 01 01:04:68
  TRACK 81 AUDIO
    TITLE "0:"
    INDEX 01 01:06:00
  TRACK 82 AUDIO
    TITLE "6:cjc137_4999"
    INDEX 01 01:06:06
  TRACK 83 AUDIO
    TITLE "0:"
    INDEX 01 01:07:37
  TRACK 84 AUDIO
    TITLE "5:cjc137_5000"
    INDEX 01 01:07:43
  TRACK 85 AUDIO
    TITLE "0:"
    INDEX 01 01:08:52
